<mxfile host="65bd71144e">
    <diagram id="2rrxs_rF_xV1B0-sSVoi" name="Page-1">
        <mxGraphModel dx="951" dy="655" grid="1" gridSize="10" guides="1" tooltips="1" connect="1" arrows="1" fold="1" page="1" pageScale="1" pageWidth="850" pageHeight="1100" math="0" shadow="0">
            <root>
                <mxCell id="0"/>
                <mxCell id="1" parent="0"/>
                <mxCell id="2" value="CAR_1" style="whiteSpace=wrap;html=1;aspect=fixed;" vertex="1" parent="1">
                    <mxGeometry x="70" y="210" width="80" height="80" as="geometry"/>
                </mxCell>
                <mxCell id="3" value="CAR_2" style="whiteSpace=wrap;html=1;aspect=fixed;" vertex="1" parent="1">
                    <mxGeometry x="240" y="210" width="80" height="80" as="geometry"/>
                </mxCell>
                <mxCell id="4" value="Actor_2" style="shape=umlActor;verticalLabelPosition=bottom;verticalAlign=top;html=1;outlineConnect=0;" vertex="1" parent="1">
                    <mxGeometry x="280" y="340" width="30" height="60" as="geometry"/>
                </mxCell>
                <mxCell id="6" value="Actor_4" style="shape=umlActor;verticalLabelPosition=bottom;verticalAlign=top;html=1;outlineConnect=0;" vertex="1" parent="1">
                    <mxGeometry x="265" y="110" width="30" height="60" as="geometry"/>
                </mxCell>
                <mxCell id="7" value="behemoth" style="whiteSpace=wrap;html=1;aspect=fixed;" vertex="1" parent="1">
                    <mxGeometry x="160" y="340" width="80" height="80" as="geometry"/>
                </mxCell>
                <mxCell id="8" value="CAR_1" style="whiteSpace=wrap;html=1;aspect=fixed;" vertex="1" parent="1">
                    <mxGeometry x="160" y="460" width="80" height="80" as="geometry"/>
                </mxCell>
                <mxCell id="9" value="Actor_3" style="shape=umlActor;verticalLabelPosition=bottom;verticalAlign=top;html=1;outlineConnect=0;" vertex="1" parent="1">
                    <mxGeometry x="105" y="120" width="30" height="60" as="geometry"/>
                </mxCell>
                <mxCell id="10" value="Actor_1" style="shape=umlActor;verticalLabelPosition=bottom;verticalAlign=top;html=1;outlineConnect=0;" vertex="1" parent="1">
                    <mxGeometry x="265" y="470" width="30" height="60" as="geometry"/>
                </mxCell>
            </root>
        </mxGraphModel>
    </diagram>
</mxfile>